<svg width="127" height="27" viewBox="0 0 127 27" fill="none" xmlns="http://www.w3.org/2000/svg">
<path d="M20.4 3.8C20.8 4.28 21.08 4.66667 21.24 4.96C21.4 5.25333 21.48 5.53333 21.48 5.8C21.48 6.12 21.2667 6.49333 20.84 6.92C20.44 7.34667 20.04 7.56 19.64 7.56C19.1067 7.56 18.68 7.48 18.36 7.32C18.04 7.16 17.7733 6.90667 17.56 6.56C17.1333 5.92 16.6133 5.37333 16 4.92C15.3867 4.44 14.4267 4.2 13.12 4.2C12 4.2 10.72 4.45333 9.28 4.96C7.86667 5.46667 6.85333 6.09333 6.24 6.84C5.70667 7.50667 5.24 8.52 4.84 9.88C4.46667 11.24 4.28 12.56 4.28 13.84C4.28 15.3867 4.61333 16.8133 5.28 18.12C5.97333 19.4 6.96 20.4267 8.24 21.2C9.54667 21.9733 11.1067 22.36 12.92 22.36C13.9067 22.36 14.92 22.1733 15.96 21.8C17.0267 21.4 17.9467 20.76 18.72 19.88H18.68C19.16 19.3733 19.76 19.12 20.48 19.12C20.9067 19.12 21.3067 19.3067 21.68 19.68C22.08 20.0533 22.28 20.4267 22.28 20.8C22.28 21.2 22.2133 21.56 22.08 21.88C21.9733 22.1733 21.76 22.5067 21.44 22.88C20.3467 24.1067 19.0533 24.9467 17.56 25.4C16.0667 25.8533 14.28 26.08 12.2 26.08C10.36 26.08 8.49333 25.64 6.6 24.76C4.73333 23.88 3.29333 22.8133 2.28 21.56C1.74667 20.7867 1.22667 19.68 0.72 18.24C0.24 16.7733 2.98023e-08 15.5867 2.98023e-08 14.68C2.98023e-08 12.36 0.346667 10.16 1.04 8.08C1.76 5.97333 2.82667 4.29333 4.24 3.04C5.17333 2.18667 6.52 1.54667 8.28 1.12C10.04 0.693333 11.6533 0.48 13.12 0.48C14.9067 0.48 16.3067 0.733333 17.32 1.24C18.36 1.72 19.3867 2.57333 20.4 3.8ZM46.7831 22.24C47.1831 22.24 47.5031 22.4133 47.7431 22.76C48.0098 23.1067 48.1431 23.48 48.1431 23.88C48.1431 24.5733 47.8765 25.1067 47.3431 25.48C46.8365 25.8267 46.1698 26 45.3431 26C44.1165 26 43.1298 25.7867 42.3831 25.36C41.6365 24.9333 40.9698 24.1333 40.3831 22.96C40.1965 22.5333 39.9698 21.84 39.7031 20.88C39.4631 19.92 39.2098 19.16 38.9431 18.6C38.7031 18.0133 38.2898 17.52 37.7031 17.12C37.1431 16.72 36.3698 16.5067 35.3831 16.48L34.5031 16.52C33.5965 16.5733 32.9165 16.6 32.4631 16.6C31.9298 16.6 31.4231 16.56 30.9431 16.48C30.9965 20 31.0231 22.6933 31.0231 24.56C31.0231 25.04 30.7831 25.44 30.3031 25.76C29.8498 26.08 29.3298 26.24 28.7431 26.24C28.0498 26.24 27.5031 25.9733 27.1031 25.44C26.7831 24.8 26.6231 23.8533 26.6231 22.6C26.6231 22.1733 26.6498 21.56 26.7031 20.76L26.7431 19C26.7431 17.3733 26.8098 15.6267 26.9431 13.76C27.0498 11.6267 27.1031 10.0667 27.1031 9.08C27.1031 8.25333 27.0231 7.14667 26.8631 5.76C26.8365 5.49333 26.7965 5.06667 26.7431 4.48C26.6898 3.86666 26.6631 3.32 26.6631 2.84C26.6631 2.49333 26.8098 2.17333 27.1031 1.88C27.3965 1.58667 27.6898 1.4 27.9831 1.32C30.1698 0.973331 32.3298 0.799998 34.4631 0.799998C37.9298 0.799998 40.7698 1.45333 42.9831 2.76C45.1965 4.06667 46.3031 6.06667 46.3031 8.76C46.3031 9.56 46.0898 10.4 45.6631 11.28C45.2631 12.1333 44.7565 12.8 44.1431 13.28C43.1031 14.1867 41.9831 14.7733 40.7831 15.04C40.8365 15.0933 41.1298 15.36 41.6631 15.84C42.1965 16.32 42.5565 16.8267 42.7431 17.36L43.2631 18.96C43.7165 20.2667 44.0765 21.1733 44.3431 21.68C44.6098 22.16 44.9565 22.4 45.3831 22.4C45.7831 22.4 46.0231 22.3733 46.1031 22.32C46.2098 22.2667 46.4365 22.24 46.7831 22.24ZM30.9031 13.08C31.7031 13.1333 32.2631 13.16 32.5831 13.16C33.0631 13.16 33.7298 13.1333 34.5831 13.08L36.4631 13.04C37.2898 13.04 38.1431 12.8533 39.0231 12.48C39.9031 12.1067 40.6365 11.5867 41.2231 10.92C41.8098 10.2267 42.1031 9.45333 42.1031 8.6C42.1031 7.08 41.4898 5.97333 40.2631 5.28C39.0365 4.58667 37.1298 4.24 34.5431 4.24C33.5565 4.24 32.3965 4.37333 31.0631 4.64C31.1165 5.6 31.1431 6.29333 31.1431 6.72C31.1431 7.22667 31.1165 7.98667 31.0631 9L31.0231 10.16C30.9431 11.28 30.9031 12.2533 30.9031 13.08ZM74.3478 0.719999C74.7211 0.719999 75.1745 0.973332 75.7078 1.48C76.2678 1.96 76.5478 2.37333 76.5478 2.72C76.5478 4.34667 76.4945 6.57333 76.3878 9.4C76.3611 10.0933 76.3345 10.9333 76.3078 11.92C76.2811 12.88 76.2678 14 76.2678 15.28C76.2678 17.4133 76.2945 19.2133 76.3478 20.68C76.4278 22.12 76.5878 23.3067 76.8278 24.24C76.8011 24.88 76.5478 25.3467 76.0678 25.64C75.5878 25.9067 75.0945 26.04 74.5878 26.04C73.5478 26.04 72.8811 25.68 72.5878 24.96C72.3211 24.24 72.1878 23.16 72.1878 21.72C72.1878 15.8533 72.2545 11.12 72.3878 7.52C71.7745 8.18667 71.1878 8.94667 70.6278 9.8C70.0678 10.6533 69.3745 11.7733 68.5478 13.16C67.4811 14.9467 66.6145 16.3067 65.9478 17.24C65.6011 17.6667 65.2945 17.96 65.0278 18.12C64.7611 18.28 64.3611 18.36 63.8278 18.36C63.1611 18.36 62.6411 18.2 62.2678 17.88C61.9211 17.56 61.5078 17.04 61.0278 16.32C60.3345 15.28 59.2411 13.48 57.7478 10.92L55.6278 7.44C55.6278 11.8133 55.7078 15.4 55.8678 18.2C56.0011 19.9333 56.0678 21.76 56.0678 23.68C56.0678 24.32 55.8945 24.8667 55.5478 25.32C55.2278 25.7467 54.7345 25.96 54.0678 25.96C53.3478 25.96 52.7745 25.8267 52.3478 25.56C51.9478 25.2933 51.7345 24.8933 51.7078 24.36C51.7345 23.9067 51.7478 23.16 51.7478 22.12C51.7478 18.6267 51.6945 15.3733 51.5878 12.36L51.5078 9.56C51.4811 8.73333 51.4545 7.77333 51.4278 6.68C51.4011 5.56 51.3878 4.34667 51.3878 3.04C51.3878 1.44 52.2545 0.64 53.9878 0.64C54.5211 0.64 55.0545 0.773333 55.5878 1.04C56.1478 1.30667 56.5611 1.69333 56.8278 2.2C57.2811 3.16 58.3478 5 60.0278 7.72C61.7078 10.4133 62.9611 12.3733 63.7878 13.6C64.3478 12.88 64.8545 12.1333 65.3078 11.36C65.7878 10.5867 66.1878 9.92 66.5078 9.36C67.4945 7.76 68.5611 6.25333 69.7078 4.84C70.5878 3.77333 71.3078 2.78667 71.8678 1.88C72.1345 1.56 72.4811 1.29333 72.9078 1.08C73.3611 0.839999 73.8411 0.719999 74.3478 0.719999ZM109.543 18.76C109.543 20.0133 109.25 21.0933 108.663 22C108.103 22.88 107.17 23.6933 105.863 24.44C104.983 24.9733 103.956 25.3733 102.783 25.64C101.61 25.9067 100.423 26.04 99.2231 26.04C97.9965 26.04 96.4765 25.64 94.6631 24.84C93.3565 24.2 92.3165 23.44 91.5431 22.56C90.7965 21.68 90.4231 20.72 90.4231 19.68C90.4231 18.96 90.5831 18.44 90.9031 18.12C91.2231 17.7733 91.7431 17.6 92.4631 17.6C92.8365 17.6 93.2231 17.76 93.6231 18.08C94.0231 18.3733 94.2631 18.6667 94.3431 18.96C94.7165 20.0533 95.3698 20.8933 96.3031 21.48C97.2365 22.04 98.3965 22.32 99.7831 22.32C101.383 22.32 102.716 22.0267 103.783 21.44C104.876 20.8533 105.423 20.0667 105.423 19.08C105.423 18.12 104.836 17.2667 103.663 16.52C102.49 15.7733 101.29 15.2533 100.063 14.96C98.3031 14.48 96.7431 13.9067 95.3831 13.24C93.9698 12.5467 92.9165 11.6933 92.2231 10.68C91.5298 9.66667 91.1831 8.6 91.1831 7.48C91.1831 6.44 91.5431 5.38667 92.2631 4.32C92.9831 3.22667 93.8365 2.44 94.8231 1.96C95.3565 1.69333 96.2631 1.41333 97.5431 1.12C98.8498 0.799999 99.7965 0.64 100.383 0.64C101.156 0.64 102.01 0.733333 102.943 0.919999C103.876 1.10667 104.636 1.37333 105.223 1.72C106.396 2.38667 107.263 2.98667 107.823 3.52C108.383 4.05333 108.663 4.72 108.663 5.52C108.663 6 108.476 6.42667 108.103 6.8C107.756 7.17333 107.143 7.36 106.263 7.36C106.05 7.36 105.836 7.26667 105.623 7.08C105.41 6.89333 105.143 6.61333 104.823 6.24C104.396 5.68 103.983 5.30667 103.583 5.12C103.183 4.98667 102.596 4.84 101.823 4.68C101.076 4.52 100.41 4.44 99.8231 4.44C99.1831 4.44 98.5165 4.57333 97.8231 4.84C97.1298 5.10666 96.5431 5.49333 96.0631 6C95.6098 6.48 95.3831 7.04 95.3831 7.68C95.3831 8.21333 95.6231 8.68 96.1031 9.08C96.6098 9.45333 97.2098 9.76 97.9031 10C98.7031 10.32 99.5698 10.6 100.503 10.84C101.73 11.2133 102.73 11.56 103.503 11.88C104.303 12.1733 105.076 12.5467 105.823 13C107.13 13.7733 108.076 14.5733 108.663 15.4C109.25 16.2 109.543 17.32 109.543 18.76ZM124.004 0.959998C124.831 0.959998 125.417 1.16 125.764 1.56C126.137 1.93333 126.324 2.49333 126.324 3.24C126.297 4.78667 126.391 7.06667 126.604 10.08C126.791 12.2133 126.884 13.96 126.884 15.32C126.884 18.8667 126.231 21.5733 124.924 23.44C123.617 25.28 121.511 26.2 118.604 26.2C116.817 26.2 115.284 25.68 114.004 24.64C112.751 23.5733 111.991 21.9867 111.724 19.88V19.64C111.724 19.1067 111.951 18.6933 112.404 18.4C112.857 18.08 113.417 17.92 114.084 17.92C114.884 17.92 115.404 18.4267 115.644 19.44C115.964 20.56 116.351 21.36 116.804 21.84C117.284 22.2933 117.911 22.52 118.684 22.52C120.257 22.52 121.311 21.8133 121.844 20.4C122.404 18.9867 122.684 16.9733 122.684 14.36C122.684 12.8667 122.564 11.0667 122.324 8.96C122.111 6.72 122.004 5.05333 122.004 3.96C122.004 2.86667 122.151 2.09333 122.444 1.64C122.764 1.18667 123.284 0.959998 124.004 0.959998Z" fill="white"/>
<path d="M20.4 3.8L19.629 4.43689L19.6318 4.44019L20.4 3.8ZM20.84 6.92L20.1329 6.21289L20.1215 6.22429L20.1105 6.23606L20.84 6.92ZM18.36 7.32L17.9128 8.21443L17.9128 8.21443L18.36 7.32ZM17.56 6.56L18.4117 6.0359L18.4021 6.02042L18.3921 6.0053L17.56 6.56ZM16 4.92L15.3837 5.7075L15.3945 5.71599L15.4056 5.72418L16 4.92ZM9.28 4.96L8.94809 4.01667L8.94254 4.01866L9.28 4.96ZM6.24 6.84L5.46721 6.20521L5.45913 6.2153L6.24 6.84ZM4.84 9.88L3.88063 9.59783L3.87808 9.60653L3.87567 9.61528L4.84 9.88ZM5.28 18.12L4.38924 18.5745L4.39484 18.5854L4.40071 18.5963L5.28 18.12ZM8.24 21.2L7.72286 22.056L7.73068 22.0606L8.24 21.2ZM15.96 21.8L16.2979 22.7413L16.3111 22.7363L15.96 21.8ZM18.72 19.88L19.4712 20.5401L20.9301 18.88H18.72V19.88ZM18.68 19.88L17.954 19.1923L16.3551 20.88H18.68V19.88ZM21.68 19.68L20.9729 20.3871L20.9851 20.3993L20.9977 20.4111L21.68 19.68ZM22.08 21.88L21.1569 21.4954L21.1481 21.5166L21.1402 21.5383L22.08 21.88ZM21.44 22.88L22.1865 23.5454L22.193 23.5381L22.1993 23.5308L21.44 22.88ZM17.56 25.4L17.8505 26.3569L17.56 25.4ZM6.6 24.76L6.17357 25.6645L6.17851 25.6668L6.6 24.76ZM2.28 21.56L1.45679 22.1277L1.47842 22.1591L1.50237 22.1887L2.28 21.56ZM0.72 18.24L-0.230397 18.551L-0.22697 18.5615L-0.223312 18.5719L0.72 18.24ZM1.04 8.08L0.0937126 7.75658L0.0913169 7.76377L1.04 8.08ZM4.24 3.04L4.90349 3.78819L4.90917 3.78315L4.91477 3.77803L4.24 3.04ZM8.28 1.12L8.0444 0.148148L8.0444 0.148148L8.28 1.12ZM17.32 1.24L16.8728 2.13443L16.8868 2.14141L16.9009 2.14796L17.32 1.24ZM19.6318 4.44019C20.0194 4.90531 20.2495 5.23238 20.3621 5.43885L22.1179 4.48115C21.9105 4.10096 21.5806 3.65469 21.1682 3.15981L19.6318 4.44019ZM20.3621 5.43885C20.4619 5.62181 20.48 5.73782 20.48 5.8H22.48C22.48 5.32884 22.3381 4.88485 22.1179 4.48115L20.3621 5.43885ZM20.48 5.8C20.48 5.73622 20.5007 5.73826 20.4518 5.82386C20.4029 5.90932 20.3065 6.03924 20.1329 6.21289L21.5471 7.62711C22.0129 7.16127 22.48 6.5394 22.48 5.8H20.48ZM20.1105 6.23606C19.8114 6.55504 19.6569 6.56 19.64 6.56V8.56C20.4231 8.56 21.0686 8.13829 21.5695 7.60394L20.1105 6.23606ZM19.64 6.56C19.192 6.56 18.937 6.49048 18.8072 6.42557L17.9128 8.21443C18.423 8.46952 19.0213 8.56 19.64 8.56V6.56ZM18.8072 6.42557C18.6759 6.35994 18.5411 6.24624 18.4117 6.0359L16.7083 7.0841C17.0056 7.56709 17.4041 7.96006 17.9128 8.21443L18.8072 6.42557ZM18.3921 6.0053C17.9018 5.26985 17.3016 4.63853 16.5944 4.11582L15.4056 5.72418C15.9251 6.10813 16.3649 6.57014 16.728 7.1147L18.3921 6.0053ZM16.6163 4.13249C15.7427 3.44879 14.512 3.2 13.12 3.2V5.2C14.3414 5.2 15.0307 5.43121 15.3837 5.7075L16.6163 4.13249ZM13.12 3.2C11.8542 3.2 10.4587 3.48518 8.94809 4.01669L9.61191 5.90331C10.9813 5.42149 12.1458 5.2 13.12 5.2V3.2ZM8.94254 4.01866C7.44535 4.55539 6.24213 5.26196 5.46727 6.20526L7.01273 7.47474C7.46454 6.9247 8.28798 6.37794 9.61746 5.90134L8.94254 4.01866ZM5.45913 6.2153C4.80831 7.02883 4.29627 8.18466 3.88063 9.59783L5.79937 10.1622C6.18373 8.85534 6.60502 7.98451 7.02087 7.46469L5.45913 6.2153ZM3.87567 9.61528C3.48105 11.0529 3.28 12.462 3.28 13.84H5.28C5.28 12.658 5.45229 11.4271 5.80433 10.1447L3.87567 9.61528ZM3.28 13.84C3.28 15.5358 3.64686 17.1194 4.38924 18.5745L6.17076 17.6655C5.57981 16.5073 5.28 15.2375 5.28 13.84H3.28ZM4.40071 18.5963C5.18122 20.0372 6.29488 21.1932 7.72288 22.0559L8.75712 20.3441C7.62512 19.6602 6.76545 18.7628 6.15929 17.6437L4.40071 18.5963ZM7.73068 22.0606C9.21911 22.9415 10.9624 23.36 12.92 23.36V21.36C11.2509 21.36 9.87423 21.0052 8.74932 20.3394L7.73068 22.0606ZM12.92 23.36C14.0348 23.36 15.1624 23.1488 16.2979 22.7412L15.6221 20.8588C14.6776 21.1979 13.7786 21.36 12.92 21.36V23.36ZM16.3111 22.7363C17.5363 22.2769 18.5924 21.54 19.4712 20.5401L17.9688 19.2199C17.3009 19.98 16.517 20.5231 15.6089 20.8637L16.3111 22.7363ZM18.72 18.88H18.68V20.88H18.72V18.88ZM19.406 20.5677C19.6905 20.2674 20.0248 20.12 20.48 20.12V18.12C19.4952 18.12 18.6295 18.4792 17.954 19.1923L19.406 20.5677ZM20.48 20.12C20.5814 20.12 20.7399 20.1541 20.9729 20.3871L22.3871 18.9729C21.8734 18.4592 21.2319 18.12 20.48 18.12V20.12ZM20.9977 20.4111C21.1397 20.5436 21.2129 20.6457 21.2485 20.7122C21.2813 20.7734 21.28 20.7991 21.28 20.8H23.28C23.28 20.0418 22.8698 19.4226 22.3623 18.9489L20.9977 20.4111ZM21.28 20.8C21.28 21.0881 21.2323 21.3145 21.1569 21.4954L23.0031 22.2646C23.1944 21.8055 23.28 21.3119 23.28 20.8H21.28ZM21.1402 21.5383C21.0914 21.6726 20.9623 21.9008 20.6807 22.2292L22.1993 23.5308C22.5577 23.1126 22.8553 22.6741 23.0198 22.2217L21.1402 21.5383ZM20.6935 22.2146C19.7157 23.3116 18.5775 24.0461 17.2695 24.4431L17.8505 26.3569C19.5292 25.8473 20.9776 24.9017 22.1865 23.5454L20.6935 22.2146ZM17.2695 24.4431C15.8957 24.8602 14.2122 25.08 12.2 25.08V27.08C14.3478 27.08 16.2376 26.8465 17.8505 26.3569L17.2695 24.4431ZM12.2 25.08C10.524 25.08 8.8006 24.6801 7.02149 23.8532L6.17851 25.6668C8.18607 26.5999 10.196 27.08 12.2 27.08V25.08ZM7.02642 23.8555C5.25914 23.0223 3.95345 22.0393 3.05763 20.9313L1.50237 22.1887C2.63321 23.5874 4.20753 24.7377 6.17358 25.6645L7.02642 23.8555ZM3.10321 20.9923C2.64156 20.3229 2.15644 19.3096 1.66331 17.9081L-0.223312 18.5719C0.296891 20.0504 0.851776 21.2505 1.45679 22.1277L3.10321 20.9923ZM1.6704 17.929C1.20361 16.5027 1 15.4324 1 14.68H-1C-1 15.741 -0.723614 17.044 -0.230397 18.551L1.6704 17.929ZM1 14.68C1 12.4612 1.33127 10.3685 1.98868 8.39623L0.0913169 7.76377C-0.637936 9.95153 -1 12.2588 -1 14.68H1ZM1.98626 8.4034C2.66036 6.43103 3.64096 4.90779 4.90349 3.78819L3.57651 2.29181C2.01238 3.67888 0.859638 5.51563 0.0937397 7.75659L1.98626 8.4034ZM4.91477 3.77803C5.68155 3.07697 6.85296 2.49491 8.5156 2.09185L8.0444 0.148148C6.18704 0.598419 4.66511 1.29636 3.56523 2.30197L4.91477 3.77803ZM8.5156 2.09185C10.2157 1.6797 11.7487 1.48 13.12 1.48V-0.52C11.558 -0.52 9.8643 -0.293039 8.0444 0.148148L8.5156 2.09185ZM13.12 1.48C14.8318 1.48 16.0558 1.72591 16.8728 2.13443L17.7672 0.345572C16.5576 -0.259244 14.9815 -0.52 13.12 -0.52V1.48ZM16.9009 2.14796C17.7625 2.54561 18.6763 3.28355 19.629 4.43688L21.171 3.16312C20.097 1.86312 18.9575 0.894389 17.7391 0.33204L16.9009 2.14796ZM47.7431 22.76L46.9209 23.3292L46.9352 23.3498L46.9505 23.3697L47.7431 22.76ZM47.3431 25.48L47.9078 26.3054L47.9166 26.2992L47.3431 25.48ZM42.3831 25.36L41.887 26.2282L41.887 26.2282L42.3831 25.36ZM40.3831 22.96L39.467 23.3608L39.4772 23.3843L39.4887 23.4072L40.3831 22.96ZM39.7031 20.88L38.733 21.1225L38.7361 21.1351L38.7396 21.1476L39.7031 20.88ZM38.9431 18.6L38.0176 18.9786L38.0282 19.0046L38.0403 19.0299L38.9431 18.6ZM37.7031 17.12L37.1219 17.9337L37.1308 17.9401L37.1398 17.9462L37.7031 17.12ZM35.3831 16.48L35.4101 15.4804L35.3739 15.4794L35.3377 15.481L35.3831 16.48ZM34.5031 16.52L34.4577 15.5209L34.4444 15.5217L34.5031 16.52ZM30.9431 16.48L31.1075 15.4936L29.9251 15.2965L29.9432 16.4951L30.9431 16.48ZM30.3031 25.76L29.7484 24.9279L29.7373 24.9353L29.7264 24.943L30.3031 25.76ZM27.1031 25.44L26.2087 25.8872L26.249 25.9679L26.3031 26.04L27.1031 25.44ZM26.7031 20.76L27.7009 20.8265L27.7024 20.8046L27.7029 20.7827L26.7031 20.76ZM26.7431 19L27.7429 19.0227L27.7431 19.0114V19H26.7431ZM26.9431 13.76L27.9406 13.8312L27.9413 13.8206L27.9419 13.8099L26.9431 13.76ZM26.8631 5.76L25.8681 5.8595L25.8688 5.86707L25.8697 5.87462L26.8631 5.76ZM26.7431 4.48L25.7469 4.56663L25.7472 4.57053L26.7431 4.48ZM27.1031 1.88L26.396 1.17289L26.396 1.17289L27.1031 1.88ZM27.9831 1.32L27.8265 0.332333L27.7727 0.340877L27.72 0.355235L27.9831 1.32ZM42.9831 2.76L43.4915 1.89887L43.4915 1.89887L42.9831 2.76ZM45.6631 11.28L44.7632 10.8437L44.7577 10.8556L45.6631 11.28ZM44.1431 13.28L43.5268 12.4925L43.506 12.5088L43.486 12.5262L44.1431 13.28ZM40.7831 15.04L40.5662 14.0638L38.7879 14.459L40.076 15.7471L40.7831 15.04ZM41.6631 15.84L42.3321 15.0967L42.3321 15.0967L41.6631 15.84ZM42.7431 17.36L43.6942 17.0509L43.6907 17.0402L43.687 17.0296L42.7431 17.36ZM43.2631 18.96L42.3121 19.2691L42.3151 19.2785L42.3184 19.2878L43.2631 18.96ZM44.3431 21.68L43.4582 22.1457L43.4635 22.1558L43.469 22.1656L44.3431 21.68ZM46.1031 22.32L45.6559 21.4256L45.6002 21.4534L45.5484 21.488L46.1031 22.32ZM30.9031 13.08H29.9031V14.0156L30.8366 14.0778L30.9031 13.08ZM34.5831 13.08L34.5619 12.0802L34.5413 12.0807L34.5207 12.0819L34.5831 13.08ZM36.4631 13.04V12.04H36.4525L36.4419 12.0402L36.4631 13.04ZM39.0231 12.48L38.6326 11.5594L38.6326 11.5594L39.0231 12.48ZM41.2231 10.92L41.9738 11.5806L41.9802 11.5733L41.9865 11.5659L41.2231 10.92ZM40.2631 5.28L39.7711 6.15056L39.7711 6.15056L40.2631 5.28ZM31.0631 4.64L30.867 3.65942L30.0166 3.82951L30.0647 4.69547L31.0631 4.64ZM31.0631 9L30.0645 8.94744L30.064 8.95649L30.0637 8.96554L31.0631 9ZM31.0231 10.16L32.0206 10.2312L32.0219 10.2129L32.0225 10.1945L31.0231 10.16ZM46.7831 23.24C46.8106 23.24 46.8266 23.2429 46.8341 23.2447C46.8411 23.2464 46.8445 23.248 46.8468 23.2493C46.8484 23.2502 46.8761 23.2645 46.9209 23.3292L48.5653 22.1908C48.1505 21.5916 47.5318 21.24 46.7831 21.24V23.24ZM46.9505 23.3697C47.096 23.5589 47.1431 23.7214 47.1431 23.88H49.1431C49.1431 23.2386 48.9236 22.6544 48.5357 22.1503L46.9505 23.3697ZM47.1431 23.88C47.1431 24.272 47.0158 24.4885 46.7697 24.6608L47.9166 26.2992C48.7371 25.7249 49.1431 24.8746 49.1431 23.88H47.1431ZM46.7784 24.6547C46.4868 24.8542 46.0367 25 45.3431 25V27C46.3029 27 47.1861 26.7991 47.9078 26.3053L46.7784 24.6547ZM45.3431 25C44.2205 25 43.4239 24.803 42.8793 24.4918L41.887 26.2282C42.8357 26.7704 44.0124 27 45.3431 27V25ZM42.8793 24.4918C42.3722 24.202 41.8192 23.596 41.2776 22.5128L39.4887 23.4072C40.1204 24.6707 40.9008 25.6647 41.887 26.2282L42.8793 24.4918ZM41.2993 22.5592C41.1428 22.2015 40.9315 21.566 40.6666 20.6124L38.7396 21.1476C39.008 22.114 39.2501 22.8652 39.467 23.3608L41.2993 22.5592ZM40.6733 20.6375C40.4254 19.6462 40.153 18.8147 39.846 18.1701L38.0403 19.0299C38.2666 19.5053 38.5008 20.1938 38.733 21.1225L40.6733 20.6375ZM39.8687 18.2214C39.5457 17.4319 38.995 16.7905 38.2665 16.2938L37.1398 17.9462C37.5846 18.2495 37.8606 18.5948 38.0176 18.9786L39.8687 18.2214ZM38.2844 16.3063C37.506 15.7503 36.5133 15.5102 35.4101 15.4804L35.3561 17.4796C36.2263 17.5032 36.7802 17.6897 37.1219 17.9337L38.2844 16.3063ZM35.3377 15.481L34.4577 15.521L34.5485 17.519L35.4285 17.479L35.3377 15.481ZM34.4444 15.5217C33.542 15.5748 32.886 15.6 32.4631 15.6V17.6C32.947 17.6 33.6509 17.5719 34.5618 17.5183L34.4444 15.5217ZM32.4631 15.6C31.9797 15.6 31.5283 15.5637 31.1075 15.4936L30.7787 17.4664C31.3179 17.5563 31.8799 17.6 32.4631 17.6V15.6ZM29.9432 16.4951C29.9966 20.0137 30.0231 22.701 30.0231 24.56H32.0231C32.0231 22.6857 31.9964 19.9863 31.943 16.4648L29.9432 16.4951ZM30.0231 24.56C30.0231 24.6349 30.0147 24.7504 29.7484 24.9279L30.8578 26.5921C31.5515 26.1296 32.0231 25.4451 32.0231 24.56H30.0231ZM29.7264 24.943C29.4518 25.1369 29.1358 25.24 28.7431 25.24V27.24C29.5238 27.24 30.2478 27.0231 30.8798 26.577L29.7264 24.943ZM28.7431 25.24C28.3498 25.24 28.1056 25.11 27.9031 24.84L26.3031 26.04C26.9007 26.8367 27.7498 27.24 28.7431 27.24V25.24ZM27.9976 24.9928C27.781 24.5597 27.6231 23.7983 27.6231 22.6H25.6231C25.6231 23.9084 25.7852 25.0403 26.2087 25.8872L27.9976 24.9928ZM27.6231 22.6C27.6231 22.207 27.648 21.62 27.7009 20.8265L25.7053 20.6935C25.6516 21.5 25.6231 22.1396 25.6231 22.6H27.6231ZM27.7029 20.7827L27.7429 19.0227L25.7434 18.9773L25.7034 20.7373L27.7029 20.7827ZM27.7431 19C27.7431 17.4003 27.8087 15.6776 27.9406 13.8312L25.9457 13.6888C25.8109 15.5757 25.7431 17.3463 25.7431 19H27.7431ZM27.9419 13.8099C28.0487 11.6745 28.1031 10.0933 28.1031 9.08H26.1031C26.1031 10.04 26.0509 11.5789 25.9444 13.7101L27.9419 13.8099ZM28.1031 9.08C28.1031 8.19788 28.0184 7.04805 27.8565 5.64537L25.8697 5.87462C26.0279 7.24528 26.1031 8.30878 26.1031 9.08H28.1031ZM27.8582 5.66049C27.832 5.39864 27.7923 4.9758 27.739 4.38946L25.7472 4.57053C25.8006 5.15753 25.8409 5.58803 25.8681 5.8595L27.8582 5.66049ZM27.7394 4.39337C27.6879 3.80126 27.6631 3.28435 27.6631 2.84H25.6631C25.6631 3.35564 25.6917 3.93207 25.7469 4.56663L27.7394 4.39337ZM27.6631 2.84C27.6631 2.80963 27.6649 2.73241 27.8102 2.5871L26.396 1.17289C25.9547 1.61426 25.6631 2.17703 25.6631 2.84H27.6631ZM27.8102 2.58711C28.0235 2.37387 28.171 2.30527 28.2462 2.28476L27.72 0.355235C27.2085 0.494725 26.7694 0.799465 26.396 1.17289L27.8102 2.58711ZM28.1397 2.30766C30.2765 1.9689 32.3842 1.8 34.4631 1.8V-0.200002C32.2754 -0.200002 30.0631 -0.0222355 27.8265 0.332333L28.1397 2.30766ZM34.4631 1.8C37.8111 1.8 40.4601 2.43174 42.4747 3.62113L43.4915 1.89887C41.0795 0.474922 38.0484 -0.200002 34.4631 -0.200002V1.8ZM42.4747 3.62113C44.366 4.73764 45.3031 6.39973 45.3031 8.76H47.3031C47.3031 5.7336 46.0269 3.3957 43.4915 1.89887L42.4747 3.62113ZM45.3031 8.76C45.3031 9.37901 45.1384 10.07 44.7633 10.8437L46.5629 11.7163C47.0411 10.73 47.3031 9.74099 47.3031 8.76H45.3031ZM44.7577 10.8556C44.4104 11.5963 43.9933 12.1274 43.5268 12.4925L44.7594 14.0675C45.5196 13.4726 46.1158 12.6703 46.5686 11.7044L44.7577 10.8556ZM43.486 12.5262C42.5562 13.3368 41.5841 13.8376 40.5662 14.0638L41.0001 16.0162C42.3822 15.709 43.6501 15.0365 44.8003 14.0338L43.486 12.5262ZM40.076 15.7471C40.1537 15.8248 40.4775 16.1183 40.9942 16.5833L42.3321 15.0967C42.0658 14.8571 41.8606 14.6717 41.7158 14.5401C41.6433 14.4741 41.5871 14.4227 41.5464 14.3852C41.5002 14.3425 41.4869 14.3296 41.4902 14.3329L40.076 15.7471ZM40.9942 16.5833C41.4356 16.9806 41.6811 17.3527 41.7993 17.6904L43.687 17.0296C43.4318 16.3006 42.9573 15.6594 42.3321 15.0967L40.9942 16.5833ZM41.7921 17.6691L42.3121 19.2691L44.2142 18.6509L43.6942 17.0509L41.7921 17.6691ZM42.3184 19.2878C42.7716 20.5942 43.1527 21.5654 43.4582 22.1457L45.228 21.2143C45.0002 20.7813 44.6613 19.9391 44.2079 18.6322L42.3184 19.2878ZM43.469 22.1656C43.8532 22.8573 44.4865 23.4 45.3831 23.4V21.4C45.3715 21.4 45.3702 21.3986 45.3745 21.3999C45.379 21.4013 45.3788 21.4023 45.3723 21.3978C45.3573 21.3874 45.2978 21.3393 45.2173 21.1944L43.469 22.1656ZM45.3831 23.4C45.5995 23.4 45.801 23.3931 45.9736 23.3739C46.0597 23.3643 46.1573 23.3497 46.2557 23.3251C46.3391 23.3043 46.4979 23.2587 46.6578 23.152L45.5484 21.488C45.615 21.4435 45.6718 21.4189 45.7032 21.4067C45.7364 21.3938 45.7605 21.3874 45.7706 21.3849C45.7889 21.3803 45.7866 21.3824 45.7527 21.3861C45.6853 21.3936 45.5668 21.4 45.3831 21.4V23.4ZM46.5503 23.2144C46.4865 23.2464 46.4421 23.2566 46.439 23.2574C46.4321 23.259 46.4405 23.2566 46.47 23.2532C46.5302 23.2461 46.631 23.24 46.7831 23.24V21.24C46.5885 21.24 46.4028 21.2473 46.2363 21.2668C46.0932 21.2837 45.8688 21.3191 45.6559 21.4256L46.5503 23.2144ZM30.8366 14.0778C31.6356 14.1311 32.226 14.16 32.5831 14.16V12.16C32.3003 12.16 31.7706 12.1356 30.9696 12.0822L30.8366 14.0778ZM32.5831 14.16C33.094 14.16 33.7847 14.1319 34.6455 14.0781L34.5207 12.0819C33.6749 12.1348 33.0323 12.16 32.5831 12.16V14.16ZM34.6044 14.0798L36.4844 14.0398L36.4419 12.0402L34.5619 12.0802L34.6044 14.0798ZM36.4631 14.04C37.4433 14.04 38.4293 13.8182 39.4137 13.4006L38.6326 11.5594C37.857 11.8885 37.1363 12.04 36.4631 12.04V14.04ZM39.4137 13.4006C40.421 12.9733 41.2807 12.3683 41.9738 11.5806L40.4724 10.2594C39.9922 10.805 39.3853 11.2401 38.6326 11.5594L39.4137 13.4006ZM41.9865 11.5659C42.7153 10.7046 43.1031 9.70581 43.1031 8.6H41.1031C41.1031 9.20085 40.9043 9.74871 40.4597 10.2741L41.9865 11.5659ZM43.1031 8.6C43.1031 6.75422 42.3249 5.29664 40.7552 4.40944L39.7711 6.15056C40.6547 6.65003 41.1031 7.40578 41.1031 8.6H43.1031ZM40.7552 4.40944C39.2993 3.58653 37.18 3.24 34.5431 3.24V5.24C37.0796 5.24 38.7736 5.5868 39.7711 6.15056L40.7552 4.40944ZM34.5431 3.24C33.4712 3.24 32.2426 3.3843 30.867 3.65942L31.2592 5.62058C32.5503 5.36236 33.6417 5.24 34.5431 5.24V3.24ZM30.0647 4.69547C30.1179 5.65398 30.1431 6.32335 30.1431 6.72H32.1431C32.1431 6.26332 32.115 5.54602 32.0616 4.58453L30.0647 4.69547ZM30.1431 6.72C30.1431 7.19938 30.1176 7.93796 30.0645 8.94744L32.0617 9.05256C32.1153 8.03537 32.1431 7.25395 32.1431 6.72H30.1431ZM30.0637 8.96554L30.0237 10.1255L32.0225 10.1945L32.0625 9.03446L30.0637 8.96554ZM30.0257 10.0888C29.9445 11.2247 29.9031 12.2229 29.9031 13.08H31.9031C31.9031 12.2838 31.9417 11.3353 32.0206 10.2312L30.0257 10.0888ZM75.7078 1.48L75.0191 2.205L75.0376 2.22261L75.057 2.23926L75.7078 1.48ZM76.3878 9.4L77.3871 9.43843L77.3871 9.43771L76.3878 9.4ZM76.3078 11.92L77.3074 11.9478L77.3074 11.947L76.3078 11.92ZM76.3478 20.68L75.3485 20.7163L75.3488 20.7259L75.3494 20.7355L76.3478 20.68ZM76.8278 24.24L77.8269 24.2816L77.8331 24.134L77.7963 23.991L76.8278 24.24ZM76.0678 25.64L76.5535 26.5142L76.5716 26.5041L76.5893 26.4933L76.0678 25.64ZM72.5878 24.96L71.6501 25.3073L71.6557 25.3224L71.6617 25.3373L72.5878 24.96ZM72.3878 7.52L73.3871 7.55701L73.4875 4.84774L71.6519 6.84294L72.3878 7.52ZM70.6278 9.8L71.4639 10.3487L71.4639 10.3487L70.6278 9.8ZM68.5478 13.16L69.4064 13.6726L69.4068 13.6721L68.5478 13.16ZM65.9478 17.24L66.7239 17.8706L66.7435 17.8465L66.7615 17.8212L65.9478 17.24ZM62.2678 17.88L61.5895 18.6148L61.6031 18.6273L61.617 18.6393L62.2678 17.88ZM61.0278 16.32L61.8599 15.7653L61.8599 15.7653L61.0278 16.32ZM57.7478 10.92L58.6116 10.4161L58.6068 10.4079L58.6018 10.3997L57.7478 10.92ZM55.6278 7.44L56.4818 6.91974L54.6278 3.87637V7.44H55.6278ZM55.8678 18.2L54.8694 18.257L54.87 18.2669L54.8708 18.2767L55.8678 18.2ZM55.5478 25.32L54.7534 24.7125L54.7478 24.72L55.5478 25.32ZM52.3478 25.56L51.7931 26.3921L51.8053 26.4002L51.8178 26.408L52.3478 25.56ZM51.7078 24.36L50.7095 24.3013L50.7063 24.3556L50.7091 24.4099L51.7078 24.36ZM51.5878 12.36L50.5882 12.3886L50.5884 12.3954L51.5878 12.36ZM51.5078 9.56L52.5074 9.53144L52.5073 9.52776L51.5078 9.56ZM51.4278 6.68L50.4281 6.7038L50.4281 6.70438L51.4278 6.68ZM55.5878 1.04L55.1406 1.93443L55.1492 1.93873L55.1579 1.94286L55.5878 1.04ZM56.8278 2.2L57.7321 1.77299L57.7228 1.75341L57.7127 1.73425L56.8278 2.2ZM60.0278 7.72L59.177 8.2455L59.1793 8.24924L60.0278 7.72ZM63.7878 13.6L62.9585 14.1589L63.7298 15.3034L64.5772 14.2139L63.7878 13.6ZM65.3078 11.36L64.4582 10.8326L64.4515 10.8434L64.4451 10.8543L65.3078 11.36ZM66.5078 9.36L65.6566 8.83511L65.6479 8.84934L65.6396 8.86386L66.5078 9.36ZM69.7078 4.84L68.9364 4.20359L68.9313 4.20996L69.7078 4.84ZM71.8678 1.88L71.0996 1.23981L71.0542 1.29423L71.017 1.35451L71.8678 1.88ZM72.9078 1.08L73.355 1.97443L73.3654 1.96923L73.3757 1.96379L72.9078 1.08ZM74.3478 1.72C74.3098 1.72 74.347 1.70865 74.48 1.78294C74.6105 1.8559 74.79 1.98739 75.0191 2.205L76.3966 0.754999C75.8339 0.220483 75.133 -0.280001 74.3478 -0.280001V1.72ZM75.057 2.23926C75.2984 2.44611 75.4375 2.60392 75.5099 2.71085C75.5849 2.82153 75.5478 2.81674 75.5478 2.72H77.5478C77.5478 2.2766 77.3708 1.8918 77.1657 1.58915C76.9582 1.28274 76.6773 0.993888 76.3586 0.720742L75.057 2.23926ZM75.5478 2.72C75.5478 4.32822 75.495 6.54049 75.3885 9.36229L77.3871 9.43771C77.494 6.60617 77.5478 4.36511 77.5478 2.72H75.5478ZM75.3886 9.36157C75.3617 10.0599 75.3349 10.904 75.3082 11.893L77.3074 11.947C77.3341 10.9627 77.3606 10.1267 77.3871 9.43843L75.3886 9.36157ZM75.3082 11.8922C75.2812 12.8639 75.2678 13.9936 75.2678 15.28H77.2678C77.2678 14.0064 77.2811 12.8961 77.3074 11.9478L75.3082 11.8922ZM75.2678 15.28C75.2678 17.4206 75.2946 19.2335 75.3485 20.7163L77.3472 20.6437C77.2944 19.1932 77.2678 17.4061 77.2678 15.28H75.2678ZM75.3494 20.7355C75.4314 22.212 75.5971 23.4695 75.8593 24.489L77.7963 23.991C77.5785 23.1439 77.4242 22.028 77.3463 20.6245L75.3494 20.7355ZM75.8287 24.1984C75.8137 24.559 75.6986 24.6937 75.5464 24.7867L76.5893 26.4933C77.3971 25.9996 77.7886 25.201 77.8269 24.2816L75.8287 24.1984ZM75.5822 24.7658C75.2379 24.9571 74.9105 25.04 74.5878 25.04V27.04C75.2785 27.04 75.9377 26.8562 76.5535 26.5142L75.5822 24.7658ZM74.5878 25.04C74.1749 25.04 73.9261 24.9674 73.783 24.8901C73.6594 24.8234 73.5756 24.7341 73.5139 24.5827L71.6617 25.3373C71.8934 25.9059 72.2896 26.3566 72.8327 26.6499C73.3562 26.9326 73.9608 27.04 74.5878 27.04V25.04ZM73.5256 24.6127C73.3218 24.0625 73.1878 23.1265 73.1878 21.72H71.1878C71.1878 23.1935 71.3205 24.4175 71.6501 25.3073L73.5256 24.6127ZM73.1878 21.72C73.1878 15.8591 73.2544 11.1395 73.3871 7.55701L71.3885 7.48299C71.2545 11.1005 71.1878 15.8476 71.1878 21.72H73.1878ZM71.6519 6.84294C70.9975 7.55427 70.3779 8.35817 69.7918 9.25134L71.4639 10.3487C71.9977 9.53517 72.5515 8.81907 73.1237 8.19706L71.6519 6.84294ZM69.7918 9.25134C69.2207 10.1215 68.5192 11.2551 67.6889 12.6479L69.4068 13.6721C70.2298 12.2916 70.9149 11.1851 71.4639 10.3487L69.7918 9.25134ZM67.6892 12.6474C66.6272 14.4261 65.777 15.7587 65.1341 16.6588L66.7615 17.8212C67.452 16.8546 68.335 15.4672 69.4064 13.6726L67.6892 12.6474ZM65.1717 16.6094C64.851 17.0041 64.6315 17.1916 64.5133 17.2625L65.5423 18.9775C65.9574 18.7284 66.3513 18.3293 66.7239 17.8706L65.1717 16.6094ZM64.5133 17.2625C64.477 17.2843 64.2938 17.36 63.8278 17.36V19.36C64.4285 19.36 65.0453 19.2757 65.5423 18.9775L64.5133 17.2625ZM63.8278 17.36C63.3146 17.36 63.055 17.2377 62.9186 17.1207L61.617 18.6393C62.2273 19.1623 63.0077 19.36 63.8278 19.36V17.36ZM62.9461 17.1452C62.6872 16.9062 62.3259 16.4643 61.8599 15.7653L60.1958 16.8747C60.6897 17.6157 61.1551 18.2138 61.5895 18.6148L62.9461 17.1452ZM61.8599 15.7653C61.1848 14.7527 60.1047 12.9758 58.6116 10.4161L56.884 11.4239C58.3776 13.9842 59.4842 15.8073 60.1958 16.8747L61.8599 15.7653ZM58.6018 10.3997L56.4818 6.91974L54.7738 7.96026L56.8938 11.4403L58.6018 10.3997ZM54.6278 7.44C54.6278 11.8231 54.7079 15.4307 54.8694 18.257L56.8662 18.1429C56.7077 15.3693 56.6278 11.8035 56.6278 7.44H54.6278ZM54.8708 18.2767C55.0019 19.982 55.0678 21.783 55.0678 23.68H57.0678C57.0678 21.737 57.0004 19.8846 56.8649 18.1233L54.8708 18.2767ZM55.0678 23.68C55.0678 24.1285 54.9507 24.4547 54.7535 24.7125L56.3422 25.9274C56.8383 25.2787 57.0678 24.5115 57.0678 23.68H55.0678ZM54.7478 24.72C54.6635 24.8324 54.507 24.96 54.0678 24.96V26.96C54.962 26.96 55.7921 26.661 56.3478 25.92L54.7478 24.72ZM54.0678 24.96C53.4586 24.96 53.0911 24.8453 52.8778 24.712L51.8178 26.408C52.4579 26.808 53.2371 26.96 54.0678 26.96V24.96ZM52.9025 24.7279C52.798 24.6583 52.7194 24.5675 52.7066 24.3101L50.7091 24.4099C50.7495 25.2192 51.0976 25.9284 51.7931 26.3921L52.9025 24.7279ZM52.7061 24.4187C52.7346 23.9335 52.7478 23.1612 52.7478 22.12H50.7478C50.7478 23.1588 50.7343 23.8798 50.7095 24.3013L52.7061 24.4187ZM52.7478 22.12C52.7478 18.6167 52.6943 15.3514 52.5872 12.3246L50.5884 12.3954C50.6946 15.3953 50.7478 18.6367 50.7478 22.12H52.7478ZM52.5874 12.3314L52.5074 9.53144L50.5082 9.58856L50.5882 12.3886L52.5874 12.3314ZM52.5073 9.52776C52.4807 8.70439 52.4541 7.74711 52.4275 6.65562L50.4281 6.70438C50.4548 7.79956 50.4816 8.76228 50.5083 9.59224L52.5073 9.52776ZM52.4275 6.6562C52.4011 5.5453 52.3878 4.34 52.3878 3.04H50.3878C50.3878 4.35334 50.4012 5.5747 50.4281 6.7038L52.4275 6.6562ZM52.3878 3.04C52.3878 2.41561 52.5532 2.12517 52.7161 1.9748C52.8941 1.81048 53.2563 1.64 53.9878 1.64V-0.36C52.986 -0.36 52.0482 -0.130476 51.3595 0.505196C50.6558 1.15483 50.3878 2.06439 50.3878 3.04H52.3878ZM53.9878 1.64C54.3484 1.64 54.7296 1.7289 55.1406 1.93443L56.035 0.145572C55.3794 -0.182238 54.6939 -0.36 53.9878 -0.36V1.64ZM55.1579 1.94286C55.5402 2.12493 55.7853 2.36626 55.9429 2.66575L57.7127 1.73425C57.337 1.0204 56.7554 0.488405 56.0177 0.137139L55.1579 1.94286ZM55.9236 2.62701C56.4049 3.64626 57.5021 5.53365 59.177 8.24549L60.8786 7.19451C59.1936 4.46634 58.1574 2.67374 57.7321 1.77299L55.9236 2.62701ZM59.1793 8.24924C60.8602 10.944 62.1214 12.9166 62.9585 14.1589L64.6171 13.0411C63.8009 11.8301 62.5554 9.88271 60.8763 7.19076L59.1793 8.24924ZM64.5772 14.2139C65.1635 13.4601 65.6947 12.6773 66.1705 11.8657L64.4451 10.8543C64.0142 11.5893 63.5321 12.2999 62.9985 12.9861L64.5772 14.2139ZM66.1575 11.8874C66.6415 11.1075 67.0482 10.4299 67.3761 9.85614L65.6396 8.86386C65.3275 9.41006 64.9341 10.0658 64.4582 10.8326L66.1575 11.8874ZM67.359 9.88489C68.3238 8.32031 69.3657 6.84889 70.4844 5.47004L68.9313 4.20996C67.7566 5.65778 66.6652 7.19969 65.6566 8.83511L67.359 9.88489ZM70.4792 5.47638C71.3801 4.38432 72.1289 3.3603 72.7186 2.40549L71.017 1.35451C70.4868 2.21303 69.7955 3.16234 68.9364 4.20362L70.4792 5.47638ZM72.636 2.52018C72.8025 2.32048 73.0339 2.13498 73.355 1.97443L72.4606 0.185572C71.9284 0.451687 71.4665 0.799518 71.0996 1.23981L72.636 2.52018ZM73.3757 1.96379C73.6867 1.79912 74.0063 1.72 74.3478 1.72V-0.280001C73.6759 -0.280001 73.0355 -0.119118 72.4399 0.196211L73.3757 1.96379ZM108.663 22L107.824 21.4567L107.819 21.4631L108.663 22ZM105.863 24.44L105.367 23.5718L105.356 23.5781L105.345 23.5848L105.863 24.44ZM102.783 25.64L103.005 26.6151L103.005 26.6151L102.783 25.64ZM94.6631 24.84L94.2233 25.7381L94.2412 25.7469L94.2595 25.7549L94.6631 24.84ZM91.5431 22.56L90.7806 23.207L90.7862 23.2136L90.792 23.2201L91.5431 22.56ZM90.9031 18.12L91.6102 18.8271L91.6244 18.813L91.6379 18.7983L90.9031 18.12ZM93.6231 18.08L92.9984 18.8609L93.0148 18.874L93.0318 18.8864L93.6231 18.08ZM94.3431 18.96L93.3784 19.2231L93.3866 19.2534L93.3968 19.2831L94.3431 18.96ZM96.3031 21.48L95.771 22.3266L95.7797 22.3322L95.7886 22.3375L96.3031 21.48ZM103.783 21.44L103.31 20.5588L103.301 20.5638L103.783 21.44ZM103.663 16.52L104.2 15.6763L104.2 15.6763L103.663 16.52ZM100.063 14.96L99.8 15.9248L99.8152 15.9289L99.8306 15.9326L100.063 14.96ZM95.3831 13.24L94.9427 14.1378L94.943 14.1379L95.3831 13.24ZM92.2231 10.68L91.3978 11.2447L91.3978 11.2447L92.2231 10.68ZM92.2631 4.32L93.092 4.87951L93.0983 4.86999L92.2631 4.32ZM94.8231 1.96L95.2606 2.85929L95.2703 2.85443L94.8231 1.96ZM97.5431 1.12L97.7665 2.09473L97.7738 2.09307L97.781 2.0913L97.5431 1.12ZM102.943 0.919999L103.139 -0.0605819L103.139 -0.0605822L102.943 0.919999ZM105.223 1.72L104.714 2.58093L104.722 2.58525L104.729 2.58945L105.223 1.72ZM108.103 6.8L107.396 6.09289L107.383 6.10598L107.37 6.11955L108.103 6.8ZM105.623 7.08L104.965 7.83258L104.965 7.83258L105.623 7.08ZM104.823 6.24L104.028 6.84604L104.045 6.86894L104.064 6.89079L104.823 6.24ZM103.583 5.12L104.006 4.21382L103.954 4.1895L103.899 4.17132L103.583 5.12ZM101.823 4.68L101.614 5.65782L101.621 5.65926L101.823 4.68ZM97.8231 4.84L98.1821 5.77334L98.1821 5.77334L97.8231 4.84ZM96.0631 6L95.3372 5.31226L95.3361 5.31338L96.0631 6ZM96.1031 9.08L95.4629 9.84822L95.4859 9.86734L95.5099 9.88506L96.1031 9.08ZM97.9031 10L98.2745 9.07152L98.2526 9.06275L98.2302 9.05501L97.9031 10ZM100.503 10.84L100.794 9.88333L100.773 9.87696L100.752 9.87151L100.503 10.84ZM103.503 11.88L103.121 12.804L103.14 12.8118L103.159 12.8189L103.503 11.88ZM105.823 13L105.304 13.8548L105.314 13.8606L105.823 13ZM108.663 15.4L107.848 15.9787L107.852 15.9851L107.857 15.9914L108.663 15.4ZM108.543 18.76C108.543 19.8522 108.29 20.7366 107.824 21.4567L109.503 22.5433C110.21 21.4501 110.543 20.1745 110.543 18.76H108.543ZM107.819 21.4631C107.377 22.1589 106.591 22.8724 105.367 23.5718L106.359 25.3082C107.749 24.5143 108.83 23.6011 109.507 22.5369L107.819 21.4631ZM105.345 23.5848C104.571 24.054 103.647 24.4181 102.562 24.6649L103.005 26.6151C104.265 26.3286 105.396 25.8927 106.381 25.2952L105.345 23.5848ZM102.562 24.6649C101.461 24.9151 100.348 25.04 99.2231 25.04V27.04C100.498 27.04 101.759 26.8983 103.005 26.6151L102.562 24.6649ZM99.2231 25.04C98.195 25.04 96.822 24.6994 95.0668 23.9251L94.2595 25.7549C96.1309 26.5806 97.7979 27.04 99.2231 27.04V25.04ZM95.103 23.9419C93.887 23.3464 92.9623 22.66 92.2943 21.8999L90.792 23.2201C91.6707 24.22 92.8259 25.0536 94.2233 25.7381L95.103 23.9419ZM92.3056 21.913C91.6943 21.1925 91.4231 20.4566 91.4231 19.68H89.4231C89.4231 20.9834 89.8986 22.1675 90.7806 23.207L92.3056 21.913ZM91.4231 19.68C91.4231 19.074 91.5628 18.8745 91.6102 18.8271L90.196 17.4129C89.6034 18.0055 89.4231 18.846 89.4231 19.68H91.4231ZM91.6379 18.7983C91.6883 18.7437 91.8763 18.6 92.4631 18.6V16.6C91.6099 16.6 90.758 16.8029 90.1683 17.4417L91.6379 18.7983ZM92.4631 18.6C92.5378 18.6 92.7104 18.6304 92.9984 18.8609L94.2478 17.2991C93.7359 16.8896 93.1351 16.6 92.4631 16.6V18.6ZM93.0318 18.8864C93.1835 18.9976 93.276 19.0882 93.3292 19.1532C93.3816 19.2173 93.3832 19.2409 93.3784 19.2231L95.3079 18.6969C95.1411 18.0853 94.6903 17.6225 94.2145 17.2736L93.0318 18.8864ZM93.3968 19.2831C93.8403 20.582 94.6339 21.6119 95.771 22.3266L96.8353 20.6334C96.1057 20.1748 95.5926 19.5246 95.2895 18.6369L93.3968 19.2831ZM95.7886 22.3375C96.9146 23.0131 98.2641 23.32 99.7831 23.32V21.32C98.5288 21.32 97.5584 21.0669 96.8176 20.6225L95.7886 22.3375ZM99.7831 23.32C101.5 23.32 103.012 23.0056 104.265 22.3162L103.301 20.5638C102.421 21.0477 101.266 21.32 99.7831 21.32V23.32ZM104.256 22.3212C105.575 21.6132 106.423 20.5348 106.423 19.08H104.423C104.423 19.5985 104.178 20.0935 103.31 20.5588L104.256 22.3212ZM106.423 19.08C106.423 17.6398 105.522 16.5174 104.2 15.6763L103.126 17.3637C104.151 18.016 104.423 18.6002 104.423 19.08H106.423ZM104.2 15.6763C102.943 14.8762 101.641 14.3091 100.296 13.9874L99.8306 15.9326C100.939 16.1976 102.037 16.6705 103.126 17.3637L104.2 15.6763ZM100.326 13.9952C98.6153 13.5286 97.1164 12.976 95.8233 12.3421L94.943 14.1379C96.3698 14.8374 97.9909 15.4314 99.8 15.9248L100.326 13.9952ZM95.8236 12.3422C94.5224 11.7039 93.6206 10.9516 93.0484 10.1153L91.3978 11.2447C92.2123 12.4351 93.4172 13.3894 94.9427 14.1378L95.8236 12.3422ZM93.0484 10.1153C92.4574 9.25157 92.1831 8.3791 92.1831 7.48H90.1831C90.1831 8.8209 90.6021 10.0818 91.3978 11.2447L93.0484 10.1153ZM92.1831 7.48C92.1831 6.68222 92.4569 5.82037 93.092 4.87947L91.4343 3.76053C90.6294 4.95296 90.1831 6.19778 90.1831 7.48H92.1831ZM93.0983 4.86999C93.7387 3.89756 94.4642 3.24668 95.2606 2.85923L94.3857 1.06076C93.2088 1.63331 92.2276 2.55578 91.428 3.77001L93.0983 4.86999ZM95.2703 2.85443C95.6887 2.64525 96.4942 2.3863 97.7665 2.09473L97.3197 0.145266C96.032 0.44037 95.0242 0.741417 94.3759 1.06557L95.2703 2.85443ZM97.781 2.0913C99.0837 1.77228 99.9277 1.64 100.383 1.64V-0.36C99.6652 -0.36 98.6159 -0.172278 97.3053 0.148701L97.781 2.0913ZM100.383 1.64C101.078 1.64 101.864 1.724 102.747 1.90058L103.139 -0.0605822C102.155 -0.257332 101.235 -0.36 100.383 -0.36V1.64ZM102.747 1.90058C103.61 2.07328 104.254 2.30915 104.714 2.58093L105.732 0.859071C105.018 0.437512 104.142 0.140055 103.139 -0.0605819L102.747 1.90058ZM104.729 2.58945C105.876 3.24094 106.661 3.79371 107.133 4.24414L108.513 2.79586C107.866 2.17963 106.917 1.53239 105.717 0.850542L104.729 2.58945ZM107.133 4.24414C107.488 4.58152 107.663 4.98305 107.663 5.52H109.663C109.663 4.45695 109.279 3.52514 108.513 2.79586L107.133 4.24414ZM107.663 5.52C107.663 5.70701 107.602 5.8865 107.396 6.09289L108.81 7.50711C109.351 6.96683 109.663 6.29298 109.663 5.52H107.663ZM107.37 6.11955C107.312 6.18235 107.055 6.36 106.263 6.36V8.36C107.231 8.36 108.201 8.16431 108.836 7.48045L107.37 6.11955ZM106.263 6.36C106.283 6.36 106.302 6.36227 106.317 6.3656C106.332 6.36887 106.341 6.37256 106.344 6.37384C106.349 6.37598 106.327 6.36747 106.282 6.32742L104.965 7.83258C105.299 8.12556 105.737 8.36 106.263 8.36V6.36ZM106.282 6.32742C106.121 6.18693 105.89 5.94845 105.582 5.58921L104.064 6.89079C104.396 7.27822 104.699 7.59974 104.965 7.83258L106.282 6.32742ZM105.619 5.63396C105.146 5.01389 104.615 4.49791 104.006 4.21382L103.16 6.02618C103.351 6.11542 103.647 6.34611 104.028 6.84604L105.619 5.63396ZM103.899 4.17132C103.443 4.01916 102.811 3.86311 102.026 3.70074L101.621 5.65926C102.382 5.81689 102.923 5.95418 103.267 6.06868L103.899 4.17132ZM102.033 3.7022C101.237 3.53159 100.498 3.44 99.8231 3.44V5.44C100.322 5.44 100.916 5.5084 101.614 5.6578L102.033 3.7022ZM99.8231 3.44C99.0424 3.44 98.2539 3.6029 97.4641 3.90665L98.1821 5.77334C98.779 5.54377 99.3239 5.44 99.8231 5.44V3.44ZM97.4641 3.90665C96.6409 4.2233 95.9262 4.6905 95.3372 5.31226L96.7891 6.68774C97.1601 6.29616 97.6187 5.99003 98.1821 5.77334L97.4641 3.90665ZM95.3361 5.31338C94.7136 5.9725 94.3831 6.77586 94.3831 7.68H96.3831C96.3831 7.30414 96.506 6.9875 96.7901 6.68662L95.3361 5.31338ZM94.3831 7.68C94.3831 8.5624 94.7984 9.29445 95.4629 9.84822L96.7433 8.31178C96.4478 8.06555 96.3831 7.86427 96.3831 7.68H94.3831ZM95.5099 9.88506C96.1099 10.3271 96.8028 10.6773 97.576 10.945L98.2302 9.05501C97.6167 8.84265 97.1097 8.57954 96.6963 8.27494L95.5099 9.88506ZM97.5317 10.9285C98.376 11.2662 99.2839 11.559 100.254 11.8085L100.752 9.87151C99.8556 9.64097 99.0303 9.37383 98.2745 9.07152L97.5317 10.9285ZM100.212 11.7967C101.422 12.165 102.389 12.501 103.121 12.804L103.885 10.956C103.071 10.619 102.037 10.2617 100.794 9.88333L100.212 11.7967ZM103.159 12.8189C103.897 13.0894 104.611 13.4342 105.304 13.8548L106.342 12.1452C105.541 11.6591 104.71 11.2573 103.847 10.9411L103.159 12.8189ZM105.314 13.8606C106.554 14.5948 107.372 15.3089 107.848 15.9787L109.479 14.8213C108.781 13.8378 107.705 12.9518 106.332 12.1394L105.314 13.8606ZM107.857 15.9914C108.272 16.558 108.543 17.4405 108.543 18.76H110.543C110.543 17.1995 110.227 15.842 109.47 14.8086L107.857 15.9914ZM125.764 1.56L125.008 2.21493L125.032 2.24188L125.057 2.26711L125.764 1.56ZM126.324 3.24L127.324 3.25724L127.324 3.24862V3.24H126.324ZM126.604 10.08L125.607 10.1506L125.607 10.1589L125.608 10.1672L126.604 10.08ZM124.924 23.44L125.739 24.019L125.743 24.0135L124.924 23.44ZM114.004 24.64L113.356 25.4015L113.365 25.4089L113.373 25.4161L114.004 24.64ZM111.724 19.88H110.724V19.943L110.732 20.0056L111.724 19.88ZM112.404 18.4L112.947 19.2396L112.964 19.2286L112.981 19.217L112.404 18.4ZM115.644 19.44L114.671 19.6705L114.676 19.6927L114.683 19.7147L115.644 19.44ZM116.804 21.84L116.077 22.5266L116.097 22.5474L116.117 22.567L116.804 21.84ZM121.844 20.4L120.914 20.0316L120.911 20.0393L120.908 20.0469L121.844 20.4ZM122.324 8.96L121.329 9.05481L121.329 9.06401L121.33 9.07319L122.324 8.96ZM122.444 1.64L121.627 1.06332L121.615 1.0798L121.604 1.09675L122.444 1.64ZM124.004 1.96C124.703 1.96 124.937 2.13238 125.008 2.21493L126.52 0.905071C125.898 0.187615 124.959 -0.0400019 124.004 -0.0400019V1.96ZM125.057 2.26711C125.177 2.38676 125.324 2.64748 125.324 3.24H127.324C127.324 2.33919 127.098 1.47991 126.471 0.852893L125.057 2.26711ZM125.324 3.22276C125.297 4.81462 125.393 7.12999 125.607 10.1506L127.602 10.0094C127.389 7.00334 127.298 4.75871 127.324 3.25724L125.324 3.22276ZM125.608 10.1672C125.793 12.2859 125.884 14.0007 125.884 15.32H127.884C127.884 13.9193 127.788 12.1407 127.6 9.99283L125.608 10.1672ZM125.884 15.32C125.884 18.7676 125.245 21.2378 124.105 22.8665L125.743 24.0135C127.217 21.9088 127.884 18.9657 127.884 15.32H125.884ZM124.109 22.861C123.042 24.3625 121.29 25.2 118.604 25.2V27.2C121.731 27.2 124.192 26.1975 125.739 24.019L124.109 22.861ZM118.604 25.2C117.027 25.2 115.721 24.7466 114.635 23.8639L113.373 25.4161C114.847 26.6134 116.608 27.2 118.604 27.2V25.2ZM114.652 23.8785C113.639 23.0161 112.961 21.6877 112.716 19.7544L110.732 20.0056C111.021 22.2857 111.863 24.1306 113.356 25.4015L114.652 23.8785ZM112.724 19.88V19.64H110.724V19.88H112.724ZM112.724 19.64C112.724 19.451 112.774 19.3514 112.947 19.2396L111.861 17.5604C111.127 18.0353 110.724 18.7624 110.724 19.64H112.724ZM112.981 19.217C113.234 19.0384 113.581 18.92 114.084 18.92V16.92C113.253 16.92 112.481 17.1216 111.827 17.583L112.981 19.217ZM114.084 18.92C114.252 18.92 114.323 18.9642 114.376 19.0162C114.453 19.0913 114.577 19.2723 114.671 19.6705L116.617 19.2095C116.471 18.5943 116.215 18.0153 115.772 17.5838C115.305 17.1292 114.716 16.92 114.084 16.92V18.92ZM114.683 19.7147C115.018 20.8878 115.459 21.8722 116.077 22.5266L117.531 21.1534C117.242 20.8478 116.91 20.2322 116.606 19.1653L114.683 19.7147ZM116.117 22.567C116.814 23.2253 117.702 23.52 118.684 23.52V21.52C118.119 21.52 117.754 21.3613 117.491 21.113L116.117 22.567ZM118.684 23.52C119.621 23.52 120.484 23.3083 121.211 22.8204C121.942 22.3304 122.454 21.6163 122.78 20.7531L120.908 20.0469C120.701 20.5971 120.42 20.9429 120.097 21.1596C119.771 21.3784 119.32 21.52 118.684 21.52V23.52ZM122.774 20.7684C123.402 19.1826 123.684 17.022 123.684 14.36H121.684C121.684 16.9247 121.406 18.7908 120.914 20.0316L122.774 20.7684ZM123.684 14.36C123.684 12.8168 123.56 10.9768 123.318 8.84681L121.33 9.07319C121.568 11.1565 121.684 12.9165 121.684 14.36H123.684ZM123.32 8.86519C123.107 6.63108 123.004 5.00353 123.004 3.96H121.004C121.004 5.10313 121.115 6.80891 121.329 9.05481L123.32 8.86519ZM123.004 3.96C123.004 2.89763 123.158 2.37818 123.284 2.18325L121.604 1.09675C121.144 1.80849 121.004 2.83571 121.004 3.96H123.004ZM123.261 2.21668C123.339 2.10563 123.502 1.96 124.004 1.96V-0.0400019C123.066 -0.0400019 122.189 0.267704 121.627 1.06332L123.261 2.21668Z" fill="black"/>
</svg>
